<?xml version="1.0" encoding="utf-8"?>
<!-- Generator: Adobe Illustrator 25.0.0, SVG Export Plug-In . SVG Version: 6.00 Build 0)  -->
<svg version="1.1" id="Layer_1" xmlns="http://www.w3.org/2000/svg" xmlns:xlink="http://www.w3.org/1999/xlink" x="0px" y="0px"
	 viewBox="0 0 174.5 44" style="enable-background:new 0 0 174.5 44;" xml:space="preserve">
<style type="text/css">
	.st0{fill:#FFFFFF;}
	.st1{fill:#19DDBC;}
	.st2{fill:#1B4751;}
</style>
<g>
	<g>
		<g>
			<path class="st0" d="M55.9,25.5V8.2h7.4c1.2,0,2.2,0.2,3.1,0.6c0.8,0.4,1.5,0.9,1.9,1.6c0.4,0.7,0.6,1.5,0.6,2.4
				c0,0.9-0.2,1.6-0.6,2.2c-0.4,0.6-0.9,1-1.5,1.4c-0.6,0.3-1.3,0.5-2.1,0.6l0.4-0.3c0.8,0,1.5,0.2,2.1,0.6c0.6,0.4,1.1,0.9,1.4,1.5
				c0.4,0.6,0.5,1.3,0.5,2.1c0,0.9-0.2,1.8-0.7,2.5c-0.4,0.7-1.1,1.3-1.9,1.7c-0.8,0.4-1.9,0.6-3.1,0.6H55.9z M59.7,15.3h3
				c0.8,0,1.4-0.2,1.8-0.5c0.4-0.4,0.6-0.9,0.6-1.5c0-0.7-0.2-1.2-0.6-1.5c-0.4-0.4-1-0.6-1.8-0.6h-3V15.3z M59.7,22.4H63
				c0.8,0,1.4-0.2,1.9-0.6c0.5-0.4,0.7-0.9,0.7-1.6c0-0.7-0.2-1.3-0.7-1.7c-0.5-0.4-1.1-0.6-1.9-0.6h-3.3V22.4z"/>
			<path class="st0" d="M72.8,11.6c-0.7,0-1.2-0.2-1.6-0.6c-0.4-0.4-0.6-0.9-0.6-1.4c0-0.6,0.2-1.1,0.6-1.5c0.4-0.4,0.9-0.6,1.6-0.6
				c0.7,0,1.2,0.2,1.6,0.6c0.4,0.4,0.6,0.9,0.6,1.5c0,0.6-0.2,1.1-0.6,1.4C74,11.4,73.5,11.6,72.8,11.6z M71,25.5V13h3.7v12.5H71z"
				/>
			<path class="st0" d="M83,25.8c-1.2,0-2.3-0.3-3.2-0.8c-1-0.6-1.7-1.3-2.3-2.3c-0.6-1-0.8-2.1-0.8-3.3c0-1.3,0.3-2.4,0.8-3.4
				c0.6-1,1.3-1.8,2.3-2.3c1-0.6,2-0.8,3.2-0.8c1.2,0,2.3,0.3,3.2,0.8c0.9,0.6,1.7,1.3,2.3,2.3c0.6,1,0.8,2.1,0.8,3.4
				c0,1.3-0.3,2.4-0.8,3.4c-0.6,1-1.3,1.8-2.3,2.3C85.3,25.5,84.2,25.8,83,25.8z M83,22.5c0.5,0,0.9-0.1,1.3-0.4
				c0.4-0.2,0.7-0.6,0.9-1.1c0.2-0.5,0.3-1.1,0.3-1.8c0-0.7-0.1-1.3-0.3-1.8c-0.2-0.5-0.5-0.9-0.9-1.1c-0.4-0.2-0.8-0.4-1.3-0.4
				c-0.5,0-0.9,0.1-1.3,0.4c-0.4,0.2-0.7,0.6-0.9,1.1c-0.2,0.5-0.3,1.1-0.3,1.8c0,0.7,0.1,1.3,0.3,1.8c0.2,0.5,0.5,0.9,0.9,1.1
				C82,22.4,82.5,22.5,83,22.5z"/>
			<path class="st0" d="M94.7,25.5L90.2,8.2h4l2.8,13.1l3.4-13.1h4.1l3.2,13.1l2.8-13.1h4l-4.6,17.3h-4.5l-3.1-12.1l-3.2,12.1H94.7z
				"/>
			<path class="st0" d="M120.3,25.8c-1.2,0-2.3-0.3-3.2-0.8c-1-0.6-1.7-1.3-2.3-2.3c-0.6-1-0.8-2.1-0.8-3.3c0-1.3,0.3-2.4,0.8-3.4
				c0.6-1,1.3-1.8,2.3-2.3c1-0.6,2-0.8,3.2-0.8c1.2,0,2.3,0.3,3.2,0.8c0.9,0.6,1.7,1.3,2.3,2.3c0.6,1,0.8,2.1,0.8,3.4
				c0,1.3-0.3,2.4-0.8,3.4c-0.6,1-1.3,1.8-2.3,2.3C122.6,25.5,121.6,25.8,120.3,25.8z M120.3,22.5c0.5,0,0.9-0.1,1.3-0.4
				c0.4-0.2,0.7-0.6,0.9-1.1c0.2-0.5,0.3-1.1,0.3-1.8c0-0.7-0.1-1.3-0.3-1.8c-0.2-0.5-0.5-0.9-0.9-1.1c-0.4-0.2-0.8-0.4-1.3-0.4
				c-0.5,0-0.9,0.1-1.3,0.4c-0.4,0.2-0.7,0.6-0.9,1.1c-0.2,0.5-0.3,1.1-0.3,1.8c0,0.7,0.1,1.3,0.3,1.8c0.2,0.5,0.5,0.9,0.9,1.1
				C119.4,22.4,119.9,22.5,120.3,22.5z"/>
			<path class="st0" d="M128.6,25.5V13h3.3l0.3,2.3c0.3-0.5,0.7-1,1.2-1.4c0.4-0.4,1-0.7,1.5-0.9c0.6-0.2,1.2-0.3,1.9-0.3v3.9h-1.3
				c-0.5,0-0.9,0.1-1.3,0.2c-0.4,0.1-0.7,0.3-1,0.5c-0.3,0.2-0.5,0.6-0.7,1c-0.1,0.4-0.2,0.9-0.2,1.6v5.6H128.6z"/>
			<path class="st0" d="M138,25.5V7.7h3.7v17.8H138z M146.3,25.5l-5.1-6.8l4.6-5.6h4.4l-6.2,7.2v-3l6.9,8.2H146.3z"/>
			<path class="st0" d="M156.8,25.8c-1.3,0-2.4-0.3-3.4-0.8c-1-0.5-1.7-1.3-2.3-2.2c-0.5-1-0.8-2.1-0.8-3.3c0-1.3,0.3-2.4,0.8-3.4
				c0.5-1,1.3-1.8,2.3-2.4c1-0.6,2.1-0.9,3.4-0.9c1.3,0,2.3,0.3,3.3,0.8c0.9,0.5,1.7,1.3,2.2,2.2c0.5,0.9,0.8,2,0.8,3.2
				c0,0.2,0,0.4,0,0.6c0,0.2,0,0.4,0,0.6H153V18h6.4c0-0.7-0.3-1.2-0.8-1.7c-0.5-0.4-1-0.6-1.8-0.6c-0.5,0-1,0.1-1.5,0.4
				c-0.4,0.2-0.8,0.6-1,1.1c-0.2,0.5-0.4,1.1-0.4,1.9v0.7c0,0.6,0.1,1.1,0.3,1.5c0.2,0.5,0.5,0.8,1,1.1c0.4,0.2,0.9,0.4,1.5,0.4
				c0.6,0,1-0.1,1.4-0.3c0.4-0.2,0.6-0.5,0.8-0.8h3.8c-0.2,0.8-0.6,1.5-1.2,2.1c-0.6,0.6-1.2,1.1-2,1.5
				C158.7,25.6,157.8,25.8,156.8,25.8z"/>
			<path class="st0" d="M164.9,25.5V13h3.3l0.3,2.3c0.3-0.5,0.7-1,1.2-1.4c0.4-0.4,1-0.7,1.5-0.9c0.6-0.2,1.2-0.3,1.9-0.3v3.9h-1.3
				c-0.5,0-0.9,0.1-1.3,0.2c-0.4,0.1-0.7,0.3-1,0.5c-0.3,0.2-0.5,0.6-0.7,1c-0.1,0.4-0.2,0.9-0.2,1.6v5.6H164.9z"/>
		</g>
		<g>
			<g>
				<path class="st0" d="M58.6,36.5c-0.6,0-1.2-0.1-1.7-0.4c-0.5-0.3-0.8-0.7-1.1-1.2c-0.2-0.5-0.4-1.1-0.4-1.8
					c0-0.7,0.1-1.3,0.4-1.8c0.2-0.5,0.6-0.9,1.1-1.2c0.5-0.3,1-0.4,1.7-0.4c0.8,0,1.4,0.2,1.9,0.6c0.5,0.4,0.8,0.9,0.9,1.6h-1.2
					c-0.1-0.4-0.3-0.7-0.5-0.9c-0.3-0.2-0.6-0.3-1.1-0.3c-0.4,0-0.8,0.1-1.1,0.3c-0.3,0.2-0.5,0.5-0.7,0.8c-0.2,0.4-0.2,0.8-0.2,1.3
					c0,0.5,0.1,0.9,0.2,1.3c0.2,0.4,0.4,0.6,0.7,0.8c0.3,0.2,0.6,0.3,1.1,0.3c0.4,0,0.8-0.1,1.1-0.3s0.5-0.5,0.5-0.8h1.2
					c-0.1,0.7-0.4,1.2-0.9,1.6C60,36.3,59.4,36.5,58.6,36.5z"/>
				<path class="st0" d="M64.2,36.3v-6.5h1.1v5.7h2.9v0.9H64.2z"/>
				<path class="st0" d="M70.9,36.3v-6.5h4.2v0.9H72v1.9h2.8v0.9H72v2h3.1v0.9H70.9z"/>
				<path class="st0" d="M77.5,36.3l2.4-6.5h1.3l2.4,6.5h-1.2l-1.8-5.2l-1.8,5.2H77.5z M78.6,34.8l0.3-0.9h3.2l0.3,0.9H78.6z"/>
				<path class="st0" d="M86.1,36.3v-6.5h1.1l3.2,4.7v-4.7h1.1v6.5h-1.1l-3.2-4.7v4.7H86.1z"/>
				<path class="st0" d="M94.4,36.3v-6.5h1.1v6.5H94.4z"/>
				<path class="st0" d="M98.5,36.3v-6.5h1.1l3.2,4.7v-4.7h1.1v6.5h-1.1l-3.2-4.7v4.7H98.5z"/>
				<path class="st0" d="M109.7,36.5c-0.6,0-1.2-0.1-1.6-0.4c-0.5-0.3-0.8-0.7-1.1-1.2c-0.3-0.5-0.4-1.1-0.4-1.8
					c0-0.7,0.1-1.3,0.4-1.8c0.3-0.5,0.6-0.9,1.1-1.2c0.5-0.3,1.1-0.4,1.7-0.4c0.8,0,1.4,0.2,1.9,0.5c0.5,0.4,0.8,0.9,1,1.5h-1.3
					c-0.1-0.3-0.3-0.6-0.5-0.8c-0.3-0.2-0.6-0.3-1.1-0.3c-0.4,0-0.8,0.1-1.1,0.3c-0.3,0.2-0.6,0.5-0.7,0.8c-0.2,0.4-0.2,0.8-0.2,1.3
					c0,0.5,0.1,0.9,0.3,1.3c0.2,0.4,0.4,0.6,0.7,0.8c0.3,0.2,0.7,0.3,1.1,0.3c0.6,0,1.1-0.2,1.4-0.5c0.3-0.3,0.5-0.8,0.6-1.3H110
					v-0.9h2.8v3.6h-1l-0.1-0.9c-0.1,0.2-0.3,0.4-0.5,0.5c-0.2,0.2-0.4,0.3-0.7,0.3C110.3,36.4,110,36.5,109.7,36.5z"/>
				<path class="st0" d="M121.8,36.5c-0.5,0-0.9-0.1-1.3-0.3c-0.4-0.2-0.7-0.4-0.9-0.7c-0.2-0.3-0.3-0.7-0.3-1.1h1.2
					c0,0.2,0.1,0.4,0.2,0.6c0.1,0.2,0.2,0.3,0.4,0.4c0.2,0.1,0.4,0.1,0.7,0.1c0.2,0,0.4,0,0.6-0.1c0.2-0.1,0.3-0.2,0.4-0.3
					c0.1-0.1,0.1-0.3,0.1-0.5c0-0.2,0-0.4-0.1-0.5c-0.1-0.1-0.2-0.2-0.4-0.3c-0.2-0.1-0.4-0.2-0.6-0.2c-0.2-0.1-0.5-0.1-0.7-0.2
					c-0.5-0.2-0.9-0.4-1.2-0.7c-0.3-0.3-0.4-0.6-0.4-1.1c0-0.4,0.1-0.7,0.3-1c0.2-0.3,0.4-0.5,0.8-0.6c0.3-0.2,0.7-0.2,1.1-0.2
					c0.4,0,0.8,0.1,1.1,0.2c0.3,0.2,0.6,0.4,0.8,0.6c0.2,0.3,0.3,0.6,0.3,1h-1.2c0-0.2,0-0.3-0.1-0.5c-0.1-0.1-0.2-0.3-0.4-0.3
					c-0.2-0.1-0.3-0.1-0.6-0.1c-0.2,0-0.4,0-0.5,0.1c-0.1,0.1-0.3,0.2-0.4,0.3c-0.1,0.1-0.1,0.3-0.1,0.5c0,0.2,0,0.3,0.1,0.4
					c0.1,0.1,0.2,0.2,0.3,0.3c0.1,0.1,0.3,0.2,0.5,0.2c0.2,0.1,0.4,0.1,0.6,0.2c0.3,0.1,0.6,0.2,0.9,0.4c0.3,0.2,0.5,0.4,0.6,0.6
					c0.2,0.2,0.2,0.6,0.2,0.9c0,0.3-0.1,0.6-0.3,0.9c-0.2,0.3-0.4,0.5-0.8,0.7C122.7,36.4,122.3,36.5,121.8,36.5z"/>
				<path class="st0" d="M126.8,36.3v-6.5h4.2v0.9h-3.1v1.9h2.8v0.9h-2.8v2h3.1v0.9H126.8z"/>
				<path class="st0" d="M133.8,36.3v-6.5h2.3c0.5,0,1,0.1,1.3,0.3c0.3,0.2,0.6,0.4,0.8,0.7c0.2,0.3,0.2,0.6,0.2,1
					c0,0.3-0.1,0.7-0.2,1c-0.2,0.3-0.4,0.5-0.8,0.7c-0.3,0.2-0.8,0.3-1.3,0.3h-1.2v2.6H133.8z M134.9,32.9h1.2
					c0.4,0,0.7-0.1,0.9-0.3c0.2-0.2,0.3-0.5,0.3-0.8c0-0.3-0.1-0.6-0.3-0.8c-0.2-0.2-0.5-0.3-0.9-0.3h-1.2V32.9z M137.2,36.3
					l-1.4-2.9h1.2l1.4,2.9H137.2z"/>
				<path class="st0" d="M142.9,36.3l-2.4-6.5h1.2l1.9,5.4l1.9-5.4h1.2l-2.4,6.5H142.9z"/>
				<path class="st0" d="M149.1,36.3v-6.5h1.1v6.5H149.1z"/>
				<path class="st0" d="M156,36.5c-0.6,0-1.2-0.1-1.7-0.4c-0.5-0.3-0.8-0.7-1.1-1.2c-0.2-0.5-0.4-1.1-0.4-1.8
					c0-0.7,0.1-1.3,0.4-1.8c0.2-0.5,0.6-0.9,1.1-1.2c0.5-0.3,1-0.4,1.7-0.4c0.8,0,1.4,0.2,1.9,0.6c0.5,0.4,0.8,0.9,0.9,1.6h-1.2
					c-0.1-0.4-0.3-0.7-0.5-0.9c-0.3-0.2-0.6-0.3-1.1-0.3c-0.4,0-0.8,0.1-1.1,0.3c-0.3,0.2-0.5,0.5-0.7,0.8c-0.2,0.4-0.2,0.8-0.2,1.3
					c0,0.5,0.1,0.9,0.2,1.3c0.2,0.4,0.4,0.6,0.7,0.8c0.3,0.2,0.6,0.3,1.1,0.3c0.4,0,0.8-0.1,1.1-0.3s0.5-0.5,0.5-0.8h1.2
					c-0.1,0.7-0.4,1.2-0.9,1.6C157.5,36.3,156.8,36.5,156,36.5z"/>
				<path class="st0" d="M161.6,36.3v-6.5h4.2v0.9h-3.1v1.9h2.8v0.9h-2.8v2h3.1v0.9H161.6z"/>
				<path class="st0" d="M170.8,36.5c-0.5,0-0.9-0.1-1.3-0.3c-0.4-0.2-0.7-0.4-0.9-0.7c-0.2-0.3-0.3-0.7-0.3-1.1h1.2
					c0,0.2,0.1,0.4,0.2,0.6c0.1,0.2,0.2,0.3,0.4,0.4c0.2,0.1,0.4,0.1,0.7,0.1c0.2,0,0.4,0,0.6-0.1c0.2-0.1,0.3-0.2,0.4-0.3
					c0.1-0.1,0.1-0.3,0.1-0.5c0-0.2,0-0.4-0.1-0.5c-0.1-0.1-0.2-0.2-0.4-0.3c-0.2-0.1-0.4-0.2-0.6-0.2c-0.2-0.1-0.5-0.1-0.7-0.2
					c-0.5-0.2-0.9-0.4-1.2-0.7c-0.3-0.3-0.4-0.6-0.4-1.1c0-0.4,0.1-0.7,0.3-1c0.2-0.3,0.4-0.5,0.8-0.6c0.3-0.2,0.7-0.2,1.1-0.2
					c0.4,0,0.8,0.1,1.1,0.2c0.3,0.2,0.6,0.4,0.8,0.6c0.2,0.3,0.3,0.6,0.3,1h-1.2c0-0.2,0-0.3-0.1-0.5c-0.1-0.1-0.2-0.3-0.4-0.3
					c-0.2-0.1-0.3-0.1-0.6-0.1c-0.2,0-0.4,0-0.5,0.1c-0.1,0.1-0.3,0.2-0.4,0.3c-0.1,0.1-0.1,0.3-0.1,0.5c0,0.2,0,0.3,0.1,0.4
					c0.1,0.1,0.2,0.2,0.3,0.3c0.1,0.1,0.3,0.2,0.5,0.2c0.2,0.1,0.4,0.1,0.6,0.2c0.3,0.1,0.6,0.2,0.9,0.4c0.3,0.2,0.5,0.4,0.6,0.6
					c0.2,0.2,0.2,0.6,0.2,0.9c0,0.3-0.1,0.6-0.3,0.9c-0.2,0.3-0.4,0.5-0.8,0.7C171.7,36.4,171.3,36.5,170.8,36.5z"/>
			</g>
		</g>
	</g>
	<g>
		<path class="st0" d="M43,3.2c-6-2.5-16.1-3-20-3.2h-1.6c-3.9,0.1-14.1,0.6-20,3.2c0,0-0.4,4.3,1.9,10.8c0,0,1,2.5,4,2.7
			c3,0.2,9.2,0,10.4-1.9c1.2-1.9,1.5-5.7,4.1-5.9h0.8c2.6,0.1,2.9,4,4.1,5.9c1.2,1.9,7.4,2.1,10.4,1.9c3-0.2,4-2.7,4-2.7
			C43.4,7.5,43,3.2,43,3.2z"/>
		<path class="st0" d="M40,21.2c0.2-0.3-9.3,0.6-12.4-1.9c-1.1-0.9-3.3-3.5-5.5-3.5c-2.2,0-4.3,2.5-5.5,3.5
			c-3.1,2.5-12.5,1.6-12.4,1.9C7.8,27,3.8,32.8,3.8,32.8C7,38,12.9,41.2,17.1,42.9c3.2,1.4,6.9,1.4,10.1,0c4.2-1.8,10.1-5,13.3-10.1
			C40.6,32.8,36.7,27,40,21.2z M17.7,22c0,0-4.4,2.5-9.6,3c0-0.5-0.1-1-0.1-1.5C9.6,23.4,13.7,23.2,17.7,22z M6.1,32.6
			c0.3-0.4,0.5-0.9,0.7-1.3c1.8,0.4,4.5,0.9,7.5,1C14.3,32.3,10.2,33.2,6.1,32.6z M7.6,29.1c0.1-0.5,0.2-1,0.3-1.5
			c1.6,0,5.8-0.2,10.1-1.1C18,26.4,12.8,28.9,7.6,29.1z M36.5,23.5c-0.1,0.5-0.1,1-0.1,1.5c-5.3-0.4-9.6-3-9.6-3
			C30.7,23.2,34.8,23.4,36.5,23.5z M26.4,26.4c4.2,1,8.4,1.1,10.1,1.1c0.1,0.5,0.2,1,0.3,1.5C31.6,28.9,26.4,26.4,26.4,26.4z
			 M30.1,32.3c2.9-0.1,5.7-0.6,7.5-1c0.2,0.4,0.4,0.9,0.7,1.3C34.2,33.2,30.1,32.3,30.1,32.3z"/>
	</g>
</g>
</svg>
